<html>
<head>
<meta charset="UTF-8">
<meta name="viewport" content="width=device-width, initial-scale=1.0"/>

<style>
.comment
{
    padding-left: 20px;
    margin-top: 4px;
    margin-right: 4px;
    margin-bottom: 4px;
    border: 2px #000 solid;
}
.submission
{
    border: 4px #00f solid;
    padding-left: 20px;
}
.hidden
{
    display: none;
}
</style>
</head>
<body><div class="submission" id="t3_6g9dzr">
    <p class="userinfo">
        <a href="https://www.reddit.com/u/V2atX">V2atX</a>
        <span class="score"> | 47 points</span>
        <span class="timestamp"> | Jun 09 2017 16:11:49</span>
    </p>
    <strong>[TV] Utopia UK S02 [1080p] BluRay FLAC [x264] [6.12GB]</strong>
    <p><p><a href="http://www.imdb.com/title/tt2384811/">Utopia</a></p>
<p>Video: AVC H.264 @ 1993 - 2745 kb/s (2277 kb/s average) (CRF20, Film Preset)<br>
Audio: FLAC 2.0 @ 511 - 614 kb/s (586 kb/s average) (lossless from DTS-HD MA source)<br>
Subs: UTF-8, non HI</p>
<p>Links protected by captcha: http://links.snahp.it/189UtopiaS02</p>
<p>Mirror on 1fichier included! Register a free account for faster downloading.<br>
I suggest using <a href="https://board.jdownloader.org/showthread.php?t=54725">JDownloader 2 for easier downloading.</a> (Copy + paste the link inside, as the redirect is broken.)</p>
<p>Complete MediaInfo of the episode with the most average bitrate (since they are of varying length, it would be pointless to check the one with the most average size):</p>
<pre><code>General
Unique ID                                : 200486367994143021560821352214551485613 (0x96D4451BD866F269B45F833DB4B25CAD)
Complete name                            : Utopia - S02E02 - Episode 2.mkv
Format                                   : Matroska
Format version                           : Version 4 / Version 2
File size                                : 1 005 MiB
Duration                                 : 50 min 53 s
Overall bit rate mode                    : Variable
Overall bit rate                         : 2 761 kb/s
Encoded date                             : UTC 2017-06-08 22:08:37
Writing application                      : mkvmerge v10.0.0 ('To Drown In You') 64bit
Writing library                          : libebml v1.3.4 + libmatroska v1.4.5

Video
ID                                       : 1
Format                                   : AVC
Format/Info                              : Advanced Video Codec
Format profile                           : High@L4.1
Format settings, CABAC                   : Yes
Format settings, ReFrames                : 5 frames
Codec ID                                 : V_MPEG4/ISO/AVC
Duration                                 : 50 min 52 s
Bit rate                                 : 2 145 kb/s
Width                                    : 1 920 pixels
Height                                   : 808 pixels
Display aspect ratio                     : 2.40:1
Frame rate mode                          : Variable
Frame rate                               : 25.000 FPS
Color space                              : YUV
Chroma subsampling                       : 4:2:0
Bit depth                                : 8 bits
Scan type                                : Progressive
Bits/(Pixel*Frame)                       : 0.055
Stream size                              : 781 MiB (78%)
Writing library                          : x264 core 142 r2479 dd79a61
Encoding settings                        : cabac=1 / ref=5 / deblock=1:0:0 / analyse=0x3:0x133 / me=umh / subme=10 / psy=1 / psy_rd=1.00:0.00 / mixed_ref=1 / me_range=24 / chroma_me=1 / trellis=2 / 8x8dct=1 / cqm=0 / deadzone=21,11 / fast_pskip=1 / chroma_qp_offset=-2 / threads=12 / lookahead_threads=2 / sliced_threads=0 / nr=0 / decimate=1 / interlaced=0 / bluray_compat=0 / constrained_intra=0 / bframes=8 / b_pyramid=2 / b_adapt=2 / b_bias=0 / direct=3 / weightb=1 / open_gop=0 / weightp=2 / keyint=250 / keyint_min=25 / scenecut=40 / intra_refresh=0 / rc_lookahead=60 / rc=crf / mbtree=1 / crf=20.0 / qcomp=0.60 / qpmin=0 / qpmax=69 / qpstep=4 / vbv_maxrate=62500 / vbv_bufsize=78125 / crf_max=0.0 / nal_hrd=none / filler=0 / ip_ratio=1.40 / aq=1:1.00
Default                                  : Yes
Forced                                   : No
Color range                              : Limited
Color primaries                          : BT.709
Transfer characteristics                 : BT.709
Matrix coefficients                      : BT.709

Audio
ID                                       : 2
Format                                   : FLAC
Format/Info                              : Free Lossless Audio Codec
Codec ID                                 : A_FLAC
Duration                                 : 50 min 53 s
Bit rate mode                            : Variable
Bit rate                                 : 614 kb/s
Channel(s)                               : 2 channels
Channel positions                        : Front: L R
Sampling rate                            : 48.0 kHz
Frame rate                               : 11.719 FPS (4096 spf)
Bit depth                                : 16 bits
Delay relative to video                  : -97 ms
Stream size                              : 224 MiB (22%)
Writing library                          : libFLAC 1.2.1 (UTC 2007-09-17)
Language                                 : English
Default                                  : Yes
Forced                                   : No

Text
ID                                       : 3
Format                                   : UTF-8
Codec ID                                 : S_TEXT/UTF8
Codec ID/Info                            : UTF-8 Plain Text
Duration                                 : 49 min 36 s
Bit rate                                 : 54 b/s
Count of elements                        : 583
Stream size                              : 19.8 KiB (0%)
Language                                 : English
Default                                  : Yes
Forced                                   : No

Menu
00:00:00.000                             : :Chapter 1
00:03:36.754                             : :Chapter 2
00:15:32.274                             : :Chapter 3
00:25:05.074                             : :Chapter 4
00:36:09.394                             : :Chapter 5
00:41:42.194                             : :Chapter 6
</code></pre>
<p><strong><a href="https://www.reddit.com/r/megalinks/comments/6fufvv/tv_utopia_uk_s01_1080p_bluray_flac_x264_835gb/">S01 in the same quality here!</a></strong></p></p>
    <p class="toolbar">
        <a href="https://www.reddit.com/r/megalinks/comments/6g9dzr">permalink</a>
    </p>
</div>
<div class="comment" id="t1_diox8uw">
    <p class="userinfo">
        <a
        class="toggle_hide_button"
        href="javascript:void(0)"
        onclick="toggle_collapse(this.parentElement.parentElement)">[-]
        </a>
        <a href="https://www.reddit.com/u/iskanderalex222">iskanderalex222</a>
        <span class="score"> | 3 points</span>
        <span class="timestamp"> | Jun 09 2017 21:12:18</span>
    </p>
    <div class="collapsible">
        <p>That was fast !!! Thanks my man!</p>
        <p class="toolbar">
            <a href="https://www.reddit.com/r/megalinks/comments/6g9dzr/_/diox8uw">permalink</a>
        </p>
        
    </div>
</div>

<div class="comment" id="t1_dioxhrc">
    <p class="userinfo">
        <a
        class="toggle_hide_button"
        href="javascript:void(0)"
        onclick="toggle_collapse(this.parentElement.parentElement)">[-]
        </a>
        <a href="https://www.reddit.com/u/BlueSquare0001">BlueSquare0001</a>
        <span class="score"> | 3 points</span>
        <span class="timestamp"> | Jun 09 2017 21:17:31</span>
    </p>
    <div class="collapsible">
        <p>Thank you so much for this.
I love this show so much.</p>
<p>I'm still hoping it comes back.</p>
        <p class="toolbar">
            <a href="https://www.reddit.com/r/megalinks/comments/6g9dzr/_/dioxhrc">permalink</a>
        </p>
        
    </div>
</div>

<div class="comment" id="t1_dip29ts">
    <p class="userinfo">
        <a
        class="toggle_hide_button"
        href="javascript:void(0)"
        onclick="toggle_collapse(this.parentElement.parentElement)">[-]
        </a>
        <a href="https://www.reddit.com/u/twennybensuns">twennybensuns</a>
        <span class="score"> | 2 points</span>
        <span class="timestamp"> | Jun 09 2017 23:02:42</span>
    </p>
    <div class="collapsible">
        <p>Brilliant. Huge thanks for this great series. Excellent quality too.</p>
        <p class="toolbar">
            <a href="https://www.reddit.com/r/megalinks/comments/6g9dzr/_/dip29ts">permalink</a>
        </p>
        
    </div>
</div>
</body>

<script>
function toggle_collapse(comment_div)
{
    var button = comment_div.getElementsByClassName("toggle_hide_button")[0];
    var collapsible = comment_div.getElementsByClassName("collapsible")[0];
    if (collapsible.classList.contains("hidden"))
    {
        collapsible.classList.remove("hidden");
        button.innerText = "[-]";
    }
    else
    {
        collapsible.classList.add("hidden");
        button.innerText = "[+]";
    }
}
</script>
</html>
